<mxfile host="Electron" modified="2023-04-14T02:59:28.639Z" agent="Mozilla/5.0 (Windows NT 10.0; Win64; x64) AppleWebKit/537.36 (KHTML, like Gecko) draw.io/21.1.2 Chrome/106.0.5249.199 Electron/21.4.3 Safari/537.36" etag="IFcMGDlyOqurW8ddBBi9" version="21.1.2" type="device">
  <diagram id="prtHgNgQTEPvFCAcTncT" name="Page-1">
    <mxGraphModel dx="1036" dy="606" grid="1" gridSize="10" guides="1" tooltips="1" connect="1" arrows="1" fold="1" page="1" pageScale="1" pageWidth="827" pageHeight="1169" math="0" shadow="0">
      <root>
        <mxCell id="0" />
        <mxCell id="1" parent="0" />
        <mxCell id="jeioB-I5GINS4jHC_oEY-1" value="BangunRuang" style="swimlane;whiteSpace=wrap;html=1;fillColor=#FFFF00;" parent="1" vertex="1">
          <mxGeometry x="160" width="160" height="80" as="geometry" />
        </mxCell>
        <mxCell id="jeioB-I5GINS4jHC_oEY-2" value="+ LuasPermukaan &lt;span style=&quot;white-space: pre;&quot;&gt; &lt;/span&gt;: double&lt;br&gt;+ volume &lt;span style=&quot;white-space: pre;&quot;&gt; &lt;/span&gt;&lt;span style=&quot;white-space: pre;&quot;&gt; &lt;/span&gt;: double" style="text;html=1;align=left;verticalAlign=middle;resizable=0;points=[];autosize=1;strokeColor=none;fillColor=none;" parent="jeioB-I5GINS4jHC_oEY-1" vertex="1">
          <mxGeometry y="30" width="170" height="40" as="geometry" />
        </mxCell>
        <mxCell id="jeioB-I5GINS4jHC_oEY-3" value="Kubus" style="swimlane;whiteSpace=wrap;html=1;" parent="1" vertex="1">
          <mxGeometry y="120" width="170" height="80" as="geometry" />
        </mxCell>
        <mxCell id="jeioB-I5GINS4jHC_oEY-4" value="+ sisi&lt;span style=&quot;white-space: pre;&quot;&gt; &lt;span style=&quot;white-space: pre;&quot;&gt; &lt;/span&gt;&lt;span style=&quot;white-space: pre;&quot;&gt; &lt;/span&gt;&lt;/span&gt;: int&lt;br&gt;+ luasPermukaan&amp;nbsp;&lt;span style=&quot;white-space: pre;&quot;&gt; &lt;/span&gt;: double&lt;br&gt;+ volume&lt;span style=&quot;white-space: pre;&quot;&gt; &lt;/span&gt;&lt;span style=&quot;white-space: pre;&quot;&gt; &lt;/span&gt;&lt;span style=&quot;white-space: pre;&quot;&gt; &lt;/span&gt;: double" style="text;html=1;align=left;verticalAlign=middle;resizable=0;points=[];autosize=1;strokeColor=none;fillColor=none;" parent="jeioB-I5GINS4jHC_oEY-3" vertex="1">
          <mxGeometry x="10" y="20" width="170" height="60" as="geometry" />
        </mxCell>
        <mxCell id="jeioB-I5GINS4jHC_oEY-8" value="" style="endArrow=classic;html=1;rounded=0;exitX=0.5;exitY=1;exitDx=0;exitDy=0;entryX=1;entryY=0.5;entryDx=0;entryDy=0;" parent="1" source="jeioB-I5GINS4jHC_oEY-1" target="jeioB-I5GINS4jHC_oEY-3" edge="1">
          <mxGeometry width="50" height="50" relative="1" as="geometry">
            <mxPoint x="390" y="290" as="sourcePoint" />
            <mxPoint x="440" y="240" as="targetPoint" />
            <Array as="points">
              <mxPoint x="240" y="160" />
            </Array>
          </mxGeometry>
        </mxCell>
        <mxCell id="jeioB-I5GINS4jHC_oEY-13" value="Balok" style="swimlane;whiteSpace=wrap;html=1;" parent="1" vertex="1">
          <mxGeometry x="320" y="120" width="180" height="110" as="geometry" />
        </mxCell>
        <mxCell id="jeioB-I5GINS4jHC_oEY-14" value="+ panjang&lt;span style=&quot;white-space: pre;&quot;&gt; &lt;span style=&quot;white-space: pre;&quot;&gt; &lt;/span&gt;&lt;/span&gt;: int&lt;br&gt;+ lebar&lt;span style=&quot;white-space: pre;&quot;&gt; &lt;span style=&quot;white-space: pre;&quot;&gt; &lt;span style=&quot;white-space: pre;&quot;&gt; &lt;/span&gt;&lt;/span&gt;&lt;/span&gt;: int&lt;br&gt;+ tinggi&lt;span style=&quot;white-space: pre;&quot;&gt; &lt;/span&gt;&lt;span style=&quot;white-space: pre;&quot;&gt; &lt;span style=&quot;white-space: pre;&quot;&gt; &lt;/span&gt;&lt;/span&gt;: int&lt;br&gt;+ luasPermukaan&lt;span style=&quot;white-space: pre;&quot;&gt; &lt;/span&gt;: double&lt;br&gt;+ volume&lt;span style=&quot;white-space: pre;&quot;&gt; &lt;/span&gt;&lt;span style=&quot;white-space: pre;&quot;&gt; &lt;/span&gt;&lt;span style=&quot;white-space: pre;&quot;&gt; &lt;/span&gt;: double" style="text;html=1;align=left;verticalAlign=middle;resizable=0;points=[];autosize=1;strokeColor=none;fillColor=none;" parent="jeioB-I5GINS4jHC_oEY-13" vertex="1">
          <mxGeometry x="9" y="20" width="170" height="90" as="geometry" />
        </mxCell>
        <mxCell id="jeioB-I5GINS4jHC_oEY-15" value="" style="endArrow=classic;html=1;rounded=0;" parent="1" edge="1">
          <mxGeometry width="50" height="50" relative="1" as="geometry">
            <mxPoint x="240" y="170" as="sourcePoint" />
            <mxPoint x="320" y="170" as="targetPoint" />
            <Array as="points">
              <mxPoint x="260" y="170" />
              <mxPoint x="280" y="170" />
            </Array>
          </mxGeometry>
        </mxCell>
        <mxCell id="jeioB-I5GINS4jHC_oEY-16" value="" style="endArrow=none;html=1;rounded=0;" parent="1" edge="1">
          <mxGeometry width="50" height="50" relative="1" as="geometry">
            <mxPoint x="240" y="250" as="sourcePoint" />
            <mxPoint x="240" y="160" as="targetPoint" />
            <Array as="points">
              <mxPoint x="240" y="330" />
            </Array>
          </mxGeometry>
        </mxCell>
        <mxCell id="jeioB-I5GINS4jHC_oEY-17" value="Bola" style="swimlane;whiteSpace=wrap;html=1;" parent="1" vertex="1">
          <mxGeometry y="240" width="170" height="80" as="geometry" />
        </mxCell>
        <mxCell id="jeioB-I5GINS4jHC_oEY-18" value="+ jariJari&lt;span style=&quot;white-space: pre;&quot;&gt; &lt;span style=&quot;white-space: pre;&quot;&gt; &lt;/span&gt;&lt;span style=&quot;white-space: pre;&quot;&gt; &lt;/span&gt;&lt;/span&gt;: int&lt;br&gt;+ luasPermukaan&amp;nbsp;&lt;span style=&quot;white-space: pre;&quot;&gt; &lt;/span&gt;: double&lt;br&gt;+ volume&lt;span style=&quot;white-space: pre;&quot;&gt; &lt;/span&gt;&lt;span style=&quot;white-space: pre;&quot;&gt; &lt;/span&gt;&lt;span style=&quot;white-space: pre;&quot;&gt; &lt;/span&gt;: double" style="text;html=1;align=left;verticalAlign=middle;resizable=0;points=[];autosize=1;strokeColor=none;fillColor=none;" parent="jeioB-I5GINS4jHC_oEY-17" vertex="1">
          <mxGeometry x="10" y="20" width="170" height="60" as="geometry" />
        </mxCell>
        <mxCell id="jeioB-I5GINS4jHC_oEY-19" value="" style="endArrow=classic;html=1;rounded=0;entryX=1;entryY=0.5;entryDx=0;entryDy=0;" parent="1" target="jeioB-I5GINS4jHC_oEY-17" edge="1">
          <mxGeometry width="50" height="50" relative="1" as="geometry">
            <mxPoint x="240" y="280" as="sourcePoint" />
            <mxPoint x="440" y="230" as="targetPoint" />
            <Array as="points" />
          </mxGeometry>
        </mxCell>
        <mxCell id="jeioB-I5GINS4jHC_oEY-20" value="Bola" style="swimlane;whiteSpace=wrap;html=1;" parent="1" vertex="1">
          <mxGeometry x="320" y="280" width="175" height="110" as="geometry" />
        </mxCell>
        <mxCell id="jeioB-I5GINS4jHC_oEY-21" value="+ jariJari&lt;span style=&quot;white-space: pre;&quot;&gt; &lt;span style=&quot;white-space: pre;&quot;&gt; &lt;/span&gt;&lt;span style=&quot;white-space: pre;&quot;&gt; &lt;/span&gt;&lt;/span&gt;: int&lt;br&gt;+ tinggi&lt;span style=&quot;white-space: pre;&quot;&gt; &lt;/span&gt;&lt;span style=&quot;white-space: pre;&quot;&gt; &lt;/span&gt;&lt;span style=&quot;white-space: pre;&quot;&gt; &lt;/span&gt;: int&lt;br&gt;+ luasPermukaan&amp;nbsp;&lt;span style=&quot;white-space: pre;&quot;&gt; &lt;/span&gt;: double&lt;br&gt;+ volume&lt;span style=&quot;white-space: pre;&quot;&gt; &lt;/span&gt;&lt;span style=&quot;white-space: pre;&quot;&gt; &lt;/span&gt;&lt;span style=&quot;white-space: pre;&quot;&gt; &lt;/span&gt;: double" style="text;html=1;align=left;verticalAlign=middle;resizable=0;points=[];autosize=1;strokeColor=none;fillColor=none;" parent="jeioB-I5GINS4jHC_oEY-20" vertex="1">
          <mxGeometry x="9" y="30" width="170" height="70" as="geometry" />
        </mxCell>
        <mxCell id="jeioB-I5GINS4jHC_oEY-23" value="" style="endArrow=classic;html=1;rounded=0;" parent="1" edge="1">
          <mxGeometry width="50" height="50" relative="1" as="geometry">
            <mxPoint x="240" y="330" as="sourcePoint" />
            <mxPoint x="320" y="330" as="targetPoint" />
          </mxGeometry>
        </mxCell>
        <mxCell id="jeioB-I5GINS4jHC_oEY-24" value="BangunDatar" style="swimlane;whiteSpace=wrap;html=1;fillColor=#00FF00;" parent="1" vertex="1">
          <mxGeometry x="160" y="400" width="160" height="80" as="geometry" />
        </mxCell>
        <mxCell id="jeioB-I5GINS4jHC_oEY-25" value="+ luas&amp;nbsp;&lt;span style=&quot;white-space: pre;&quot;&gt; &lt;span style=&quot;white-space: pre;&quot;&gt; &lt;/span&gt;&lt;/span&gt;: double&lt;br&gt;+ keliling&amp;nbsp;&lt;span style=&quot;white-space: pre;&quot;&gt; &lt;/span&gt;&lt;span style=&quot;white-space: pre;&quot;&gt; &lt;/span&gt;: double" style="text;html=1;align=left;verticalAlign=middle;resizable=0;points=[];autosize=1;strokeColor=none;fillColor=none;" parent="jeioB-I5GINS4jHC_oEY-24" vertex="1">
          <mxGeometry x="5" y="30" width="150" height="40" as="geometry" />
        </mxCell>
        <mxCell id="jeioB-I5GINS4jHC_oEY-26" value="Persegi" style="swimlane;whiteSpace=wrap;html=1;" parent="1" vertex="1">
          <mxGeometry y="520" width="160" height="80" as="geometry" />
        </mxCell>
        <mxCell id="jeioB-I5GINS4jHC_oEY-27" value="+ sisi&lt;span style=&quot;white-space: pre;&quot;&gt; &lt;/span&gt;&lt;span style=&quot;white-space: pre;&quot;&gt; &lt;/span&gt;: int&lt;br&gt;+ luas&amp;nbsp;&lt;span style=&quot;white-space: pre;&quot;&gt; &lt;span style=&quot;white-space: pre;&quot;&gt; &lt;/span&gt;&lt;/span&gt;: double&lt;br&gt;+ keliling&amp;nbsp;&lt;span style=&quot;white-space: pre;&quot;&gt; &lt;/span&gt;&lt;span style=&quot;white-space: pre;&quot;&gt; &lt;/span&gt;: double" style="text;html=1;align=left;verticalAlign=middle;resizable=0;points=[];autosize=1;strokeColor=none;fillColor=none;" parent="jeioB-I5GINS4jHC_oEY-26" vertex="1">
          <mxGeometry x="5" y="20" width="150" height="60" as="geometry" />
        </mxCell>
        <mxCell id="jeioB-I5GINS4jHC_oEY-28" value="persegiPanjang" style="swimlane;whiteSpace=wrap;html=1;" parent="1" vertex="1">
          <mxGeometry x="320" y="520" width="160" height="90" as="geometry" />
        </mxCell>
        <mxCell id="jeioB-I5GINS4jHC_oEY-29" value="+ panjang&lt;span style=&quot;white-space: pre;&quot;&gt; &lt;/span&gt;: int&lt;br&gt;+ lebar&lt;span style=&quot;white-space: pre;&quot;&gt; &lt;/span&gt;&lt;span style=&quot;white-space: pre;&quot;&gt; &lt;/span&gt;: int&lt;br&gt;+ luas&amp;nbsp;&lt;span style=&quot;white-space: pre;&quot;&gt; &lt;span style=&quot;white-space: pre;&quot;&gt; &lt;/span&gt;&lt;/span&gt;: double&lt;br&gt;+ keliling&amp;nbsp;&lt;span style=&quot;white-space: pre;&quot;&gt; &lt;/span&gt;&lt;span style=&quot;white-space: pre;&quot;&gt; &lt;/span&gt;: double" style="text;html=1;align=left;verticalAlign=middle;resizable=0;points=[];autosize=1;strokeColor=none;fillColor=none;" parent="jeioB-I5GINS4jHC_oEY-28" vertex="1">
          <mxGeometry x="5" y="20" width="150" height="70" as="geometry" />
        </mxCell>
        <mxCell id="jeioB-I5GINS4jHC_oEY-30" value="Lingkaran" style="swimlane;whiteSpace=wrap;html=1;" parent="1" vertex="1">
          <mxGeometry y="680" width="160" height="80" as="geometry" />
        </mxCell>
        <mxCell id="jeioB-I5GINS4jHC_oEY-31" value="+ jariJari&lt;span style=&quot;white-space: pre;&quot;&gt; &lt;/span&gt;&lt;span style=&quot;white-space: pre;&quot;&gt; &lt;/span&gt;: int&lt;br&gt;+ luas&amp;nbsp;&lt;span style=&quot;white-space: pre;&quot;&gt; &lt;span style=&quot;white-space: pre;&quot;&gt; &lt;/span&gt;&lt;/span&gt;: double&lt;br&gt;+ keliling&amp;nbsp;&lt;span style=&quot;white-space: pre;&quot;&gt; &lt;/span&gt;&lt;span style=&quot;white-space: pre;&quot;&gt; &lt;/span&gt;: double" style="text;html=1;align=left;verticalAlign=middle;resizable=0;points=[];autosize=1;strokeColor=none;fillColor=none;" parent="jeioB-I5GINS4jHC_oEY-30" vertex="1">
          <mxGeometry x="5" y="20" width="150" height="60" as="geometry" />
        </mxCell>
        <mxCell id="jeioB-I5GINS4jHC_oEY-32" value="Segitiga" style="swimlane;whiteSpace=wrap;html=1;" parent="1" vertex="1">
          <mxGeometry x="320" y="680" width="160" height="120" as="geometry" />
        </mxCell>
        <mxCell id="jeioB-I5GINS4jHC_oEY-33" value="+ alas&lt;span style=&quot;white-space: pre;&quot;&gt; &lt;/span&gt;&lt;span style=&quot;white-space: pre;&quot;&gt; &lt;/span&gt;: int&lt;br&gt;+ tinggi&lt;span style=&quot;white-space: pre;&quot;&gt; &lt;/span&gt;&lt;span style=&quot;white-space: pre;&quot;&gt; &lt;/span&gt;: int&lt;br&gt;+ sisi1&lt;span style=&quot;white-space: pre;&quot;&gt; &lt;/span&gt;&lt;span style=&quot;white-space: pre;&quot;&gt; &lt;/span&gt;: int&lt;br&gt;+ sisi2&lt;span style=&quot;white-space: pre;&quot;&gt; &lt;/span&gt;&lt;span style=&quot;white-space: pre;&quot;&gt; &lt;/span&gt;: int&lt;br&gt;+ luas&amp;nbsp;&lt;span style=&quot;white-space: pre;&quot;&gt; &lt;span style=&quot;white-space: pre;&quot;&gt; &lt;/span&gt;&lt;/span&gt;: double&lt;br&gt;+ keliling&amp;nbsp;&lt;span style=&quot;white-space: pre;&quot;&gt; &lt;/span&gt;&lt;span style=&quot;white-space: pre;&quot;&gt; &lt;/span&gt;: double" style="text;html=1;align=left;verticalAlign=middle;resizable=0;points=[];autosize=1;strokeColor=none;fillColor=none;" parent="jeioB-I5GINS4jHC_oEY-32" vertex="1">
          <mxGeometry x="5" y="20" width="150" height="100" as="geometry" />
        </mxCell>
        <mxCell id="jeioB-I5GINS4jHC_oEY-34" value="Trapesium" style="swimlane;whiteSpace=wrap;html=1;" parent="1" vertex="1">
          <mxGeometry x="160" y="840" width="160" height="150" as="geometry" />
        </mxCell>
        <mxCell id="jeioB-I5GINS4jHC_oEY-35" value="+ sisiAtas&lt;span style=&quot;white-space: pre;&quot;&gt; &lt;/span&gt;: int&lt;br&gt;+ sisiBawah&lt;span style=&quot;white-space: pre;&quot;&gt; &lt;/span&gt;: int&lt;br&gt;+ sisiKanan&lt;span style=&quot;white-space: pre;&quot;&gt; &lt;/span&gt;: int&lt;br&gt;+ sisiKiri&lt;span style=&quot;white-space: pre;&quot;&gt; &lt;/span&gt;&lt;span style=&quot;white-space: pre;&quot;&gt; &lt;/span&gt;: int&lt;br&gt;+ tinggi&lt;span style=&quot;white-space: pre;&quot;&gt; &lt;/span&gt;&lt;span style=&quot;white-space: pre;&quot;&gt; &lt;/span&gt;: int&lt;br&gt;+ luas&amp;nbsp;&lt;span style=&quot;white-space: pre;&quot;&gt; &lt;span style=&quot;white-space: pre;&quot;&gt; &lt;/span&gt;&lt;/span&gt;: double&lt;br&gt;+ keliling&amp;nbsp;&lt;span style=&quot;white-space: pre;&quot;&gt; &lt;/span&gt;&lt;span style=&quot;white-space: pre;&quot;&gt; &lt;/span&gt;: double" style="text;html=1;align=left;verticalAlign=middle;resizable=0;points=[];autosize=1;strokeColor=none;fillColor=none;" parent="jeioB-I5GINS4jHC_oEY-34" vertex="1">
          <mxGeometry x="5" y="30" width="150" height="110" as="geometry" />
        </mxCell>
        <mxCell id="jeioB-I5GINS4jHC_oEY-37" value="" style="endArrow=classic;html=1;rounded=0;exitX=0.5;exitY=1;exitDx=0;exitDy=0;entryX=0.5;entryY=0;entryDx=0;entryDy=0;" parent="1" source="jeioB-I5GINS4jHC_oEY-24" target="jeioB-I5GINS4jHC_oEY-34" edge="1">
          <mxGeometry width="50" height="50" relative="1" as="geometry">
            <mxPoint x="390" y="780" as="sourcePoint" />
            <mxPoint x="440" y="730" as="targetPoint" />
          </mxGeometry>
        </mxCell>
        <mxCell id="jeioB-I5GINS4jHC_oEY-38" value="" style="endArrow=classic;html=1;rounded=0;entryX=1;entryY=0.5;entryDx=0;entryDy=0;" parent="1" target="jeioB-I5GINS4jHC_oEY-30" edge="1">
          <mxGeometry width="50" height="50" relative="1" as="geometry">
            <mxPoint x="240" y="720" as="sourcePoint" />
            <mxPoint x="440" y="730" as="targetPoint" />
          </mxGeometry>
        </mxCell>
        <mxCell id="jeioB-I5GINS4jHC_oEY-39" value="" style="endArrow=classic;html=1;rounded=0;entryX=0;entryY=0.5;entryDx=0;entryDy=0;" parent="1" target="jeioB-I5GINS4jHC_oEY-28" edge="1">
          <mxGeometry width="50" height="50" relative="1" as="geometry">
            <mxPoint x="240" y="565" as="sourcePoint" />
            <mxPoint x="440" y="730" as="targetPoint" />
          </mxGeometry>
        </mxCell>
        <mxCell id="jeioB-I5GINS4jHC_oEY-40" value="" style="endArrow=classic;html=1;rounded=0;entryX=0;entryY=0.5;entryDx=0;entryDy=0;" parent="1" target="jeioB-I5GINS4jHC_oEY-32" edge="1">
          <mxGeometry width="50" height="50" relative="1" as="geometry">
            <mxPoint x="240" y="740" as="sourcePoint" />
            <mxPoint x="440" y="730" as="targetPoint" />
          </mxGeometry>
        </mxCell>
        <mxCell id="jeioB-I5GINS4jHC_oEY-41" value="" style="endArrow=classic;html=1;rounded=0;entryX=1;entryY=0.5;entryDx=0;entryDy=0;" parent="1" target="jeioB-I5GINS4jHC_oEY-26" edge="1">
          <mxGeometry width="50" height="50" relative="1" as="geometry">
            <mxPoint x="240" y="560" as="sourcePoint" />
            <mxPoint x="440" y="730" as="targetPoint" />
          </mxGeometry>
        </mxCell>
        <mxCell id="jeioB-I5GINS4jHC_oEY-43" value="Bangun" style="swimlane;whiteSpace=wrap;html=1;fillColor=#FF0B03;" parent="1" vertex="1">
          <mxGeometry x="600" y="280" width="200" height="160" as="geometry" />
        </mxCell>
        <mxCell id="jeioB-I5GINS4jHC_oEY-44" value="+ selectMenu&lt;span style=&quot;white-space: pre;&quot;&gt; &lt;span style=&quot;white-space: pre;&quot;&gt; &lt;/span&gt;&lt;/span&gt;: int&lt;br&gt;+ userIndex&lt;span style=&quot;white-space: pre;&quot;&gt; &lt;span style=&quot;white-space: pre;&quot;&gt; &lt;/span&gt;&lt;/span&gt;:&amp;nbsp;int" style="text;html=1;align=left;verticalAlign=middle;resizable=0;points=[];autosize=1;strokeColor=none;fillColor=none;" parent="jeioB-I5GINS4jHC_oEY-43" vertex="1">
          <mxGeometry x="20" y="35" width="150" height="40" as="geometry" />
        </mxCell>
        <mxCell id="jeioB-I5GINS4jHC_oEY-49" value="+ runApp&lt;span style=&quot;white-space: pre;&quot;&gt; &lt;/span&gt;&lt;span style=&quot;white-space: pre;&quot;&gt; &lt;span style=&quot;white-space: pre;&quot;&gt; &lt;/span&gt;&lt;/span&gt;: void&lt;br&gt;&lt;div style=&quot;&quot;&gt;+ showLoginMenu&lt;span style=&quot;white-space: pre;&quot;&gt; &lt;/span&gt;: void&lt;/div&gt;&lt;div style=&quot;&quot;&gt;+ showRegisterMenu : void&lt;/div&gt;&lt;div style=&quot;&quot;&gt;+ showDetailUser&lt;span style=&quot;white-space: pre;&quot;&gt; &lt;/span&gt;: void&lt;/div&gt;" style="text;html=1;align=left;verticalAlign=middle;resizable=0;points=[];autosize=1;strokeColor=none;fillColor=none;" parent="jeioB-I5GINS4jHC_oEY-43" vertex="1">
          <mxGeometry x="20" y="90" width="170" height="70" as="geometry" />
        </mxCell>
        <mxCell id="jeioB-I5GINS4jHC_oEY-47" value="" style="endArrow=classic;html=1;rounded=0;entryX=1;entryY=0.5;entryDx=0;entryDy=0;" parent="1" target="jeioB-I5GINS4jHC_oEY-24" edge="1">
          <mxGeometry width="50" height="50" relative="1" as="geometry">
            <mxPoint x="600" y="370" as="sourcePoint" />
            <mxPoint x="440" y="250" as="targetPoint" />
            <Array as="points">
              <mxPoint x="520" y="370" />
              <mxPoint x="520" y="440" />
            </Array>
          </mxGeometry>
        </mxCell>
        <mxCell id="jeioB-I5GINS4jHC_oEY-48" value="" style="endArrow=none;html=1;rounded=0;" parent="1" edge="1">
          <mxGeometry width="50" height="50" relative="1" as="geometry">
            <mxPoint x="600" y="370" as="sourcePoint" />
            <mxPoint x="800" y="370" as="targetPoint" />
            <Array as="points">
              <mxPoint x="680" y="370" />
            </Array>
          </mxGeometry>
        </mxCell>
        <mxCell id="jeioB-I5GINS4jHC_oEY-45" value="" style="endArrow=classic;html=1;rounded=0;exitX=0.5;exitY=0;exitDx=0;exitDy=0;" parent="1" source="jeioB-I5GINS4jHC_oEY-43" edge="1">
          <mxGeometry width="50" height="50" relative="1" as="geometry">
            <mxPoint x="340" y="40" as="sourcePoint" />
            <mxPoint x="320" y="40" as="targetPoint" />
            <Array as="points">
              <mxPoint x="700" y="40" />
            </Array>
          </mxGeometry>
        </mxCell>
      </root>
    </mxGraphModel>
  </diagram>
</mxfile>
